<?xml version="1.0" encoding="UTF-8"?><svg id="Layer_2" xmlns="http://www.w3.org/2000/svg" viewBox="0 0 237.59 237.59"><defs><style>.cls-1{fill:#d7df23;}.cls-1,.cls-2,.cls-3,.cls-4{stroke-width:0px;}.cls-2{fill:#8dc63f;}.cls-3{fill:#fff;}.cls-4{fill:#006838;}</style></defs><g id="Layer_1-2"><circle class="cls-2" cx="118.8" cy="118.8" r="118.8"/><circle class="cls-3" cx="190.24" cy="133.43" r="36.32"/><path class="cls-4" d="m118.8,0C53.19,0,0,53.19,0,118.8h237.59C237.59,53.19,184.4,0,118.8,0Z"/><path class="cls-1" d="m0,118.8C0,184.4,53.19,237.59,118.8,237.59V0C53.19,0,0,53.19,0,118.8Z"/><circle class="cls-3" cx="55.94" cy="91.57" r="50.21"/><path class="cls-1" d="m131.43,91.57c4.07-33.77,22.48-50.21,50.21-50.21s50.21,22.48,50.21,50.21c0,1.62-.08,3.22-.23,4.8h3.84C224.98,41.49,176.74,0,118.8,0v237.59"/><circle class="cls-4" cx="197.55" cy="147.95" r="14.52"/><path class="cls-2" d="m118.8,206.39c18.27,0,33.08-9.45,33.08-21.1h-66.17c0,11.65,14.81,21.1,33.08,21.1Z"/></g></svg>